{
  "asset": {
    "generator": "Khronos glTF Blender I/O v3.5.30",
    "version": "2.0"
  },
  "extensionsUsed": [
    "KHR_materials_clearcoat"
  ],
  "scene": 0,
  "scenes": [
    {
      "name": "Scene",
      "nodes": [
        0,
        2
      ]
    }
  ],
  "nodes": [
    {
      "mesh": 0,
      "name": "Plane",
      "rotation": [
        0,
        0.5005216002464294,
        0,
        0.8657240867614746
      ],
      "scale": [
        49.967674255371094,
        22.801692962646484,
        49.967674255371094
      ]
    },
    {
      "mesh": 1,
      "name": "Globe_Material.002_0",
      "rotation": [
        0.028682589530944824,
        -0.8556163311004639,
        0.09264728426933289,
        0.5084431767463684
      ],
      "scale": [
        8.262529373168945,
        8.262529373168945,
        8.262530326843262
      ],
      "translation": [
        0,
        9.471612930297852,
        0
      ]
    },
    {
      "children": [
        1
      ],
      "name": "Empty"
    }
  ],
  "animations": [
    {
      "channels": [
        {
          "sampler": 0,
          "target": {
            "node": 0,
            "path": "rotation"
          }
        }
      ],
      "name": "PlaneAction",
      "samplers": [
        {
          "input": 8,
          "interpolation": "STEP",
          "output": 9
        }
      ]
    },
    {
      "channels": [
        {
          "sampler": 0,
          "target": {
            "node": 2,
            "path": "rotation"
          }
        }
      ],
      "name": "EmptyAction",
      "samplers": [
        {
          "input": 10,
          "interpolation": "LINEAR",
          "output": 11
        }
      ]
    }
  ],
  "materials": [
    {
      "doubleSided": true,
      "name": "Material.004",
      "pbrMetallicRoughness": {
        "baseColorFactor": [
          0,
          0,
          0,
          1
        ],
        "metallicFactor": 0,
        "roughnessFactor": 0.8661417365074158
      }
    },
    {
      "doubleSided": true,
      "extensions": {
        "KHR_materials_clearcoat": {
          "clearcoatFactor": 1,
          "clearcoatRoughnessFactor": 0,
          "clearcoatNormalTexture": {
            "index": 0,
            "scale": 3.0986740589141846
          }
        }
      },
      "name": "Material.002",
      "normalTexture": {
        "index": 1,
        "scale": 3.0986740589141846
      },
      "pbrMetallicRoughness": {
        "baseColorTexture": {
          "index": 2
        },
        "metallicFactor": 0.2926136255264282,
        "roughnessFactor": 0.8818181753158569
      }
    }
  ],
  "meshes": [
    {
      "name": "Plane",
      "primitives": [
        {
          "attributes": {
            "POSITION": 0,
            "TEXCOORD_0": 1,
            "NORMAL": 2
          },
          "indices": 3,
          "material": 0
        }
      ]
    },
    {
      "name": "Globe_Material.002_0",
      "primitives": [
        {
          "attributes": {
            "POSITION": 4,
            "TEXCOORD_0": 5,
            "NORMAL": 6
          },
          "indices": 7,
          "material": 1
        }
      ]
    }
  ],
  "textures": [
    {
      "sampler": 0,
      "source": 0
    },
    {
      "sampler": 0,
      "source": 0
    },
    {
      "sampler": 0,
      "source": 1
    }
  ],
  "images": [
    {
      "name": "Material.002_normal",
      "uri": "uploads_files_5973654_globe_img0.png"
    },
    {
      "name": "Material.002_baseColor",
      "uri": "uploads_files_5973654_globe_img1.png"
    }
  ],
  "accessors": [
    {
      "bufferView": 0,
      "componentType": 5126,
      "count": 61,
      "max": [
        1,
        2.487377643585205,
        1
      ],
      "min": [
        -1,
        0,
        -1
      ],
      "type": "VEC3"
    },
    {
      "bufferView": 1,
      "componentType": 5126,
      "count": 61,
      "type": "VEC2"
    },
    {
      "bufferView": 2,
      "componentType": 5126,
      "count": 61,
      "type": "VEC3"
    },
    {
      "bufferView": 3,
      "componentType": 5123,
      "count": 288,
      "type": "SCALAR"
    },
    {
      "bufferView": 4,
      "componentType": 5126,
      "count": 1087,
      "max": [
        0.9755489826202393,
        0.9755489826202393,
        0.9755489826202393
      ],
      "min": [
        -0.9755480289459229,
        -0.9755489826202393,
        -0.9755480289459229
      ],
      "type": "VEC3"
    },
    {
      "bufferView": 5,
      "componentType": 5126,
      "count": 1087,
      "type": "VEC2"
    },
    {
      "bufferView": 6,
      "componentType": 5126,
      "count": 1087,
      "type": "VEC3"
    },
    {
      "bufferView": 7,
      "componentType": 5123,
      "count": 5952,
      "type": "SCALAR"
    },
    {
      "bufferView": 8,
      "componentType": 5126,
      "count": 1,
      "max": [
        0.5
      ],
      "min": [
        0.5
      ],
      "type": "SCALAR"
    },
    {
      "bufferView": 9,
      "componentType": 5126,
      "count": 1,
      "type": "VEC4"
    },
    {
      "bufferView": 10,
      "componentType": 5126,
      "count": 30,
      "max": [
        1.25
      ],
      "min": [
        0.041666666666666664
      ],
      "type": "SCALAR"
    },
    {
      "bufferView": 11,
      "componentType": 5126,
      "count": 30,
      "type": "VEC4"
    }
  ],
  "bufferViews": [
    {
      "buffer": 0,
      "byteLength": 732,
      "byteOffset": 0,
      "target": 34962
    },
    {
      "buffer": 0,
      "byteLength": 488,
      "byteOffset": 732,
      "target": 34962
    },
    {
      "buffer": 0,
      "byteLength": 732,
      "byteOffset": 1220,
      "target": 34962
    },
    {
      "buffer": 0,
      "byteLength": 576,
      "byteOffset": 1952,
      "target": 34963
    },
    {
      "buffer": 0,
      "byteLength": 13044,
      "byteOffset": 2528,
      "target": 34962
    },
    {
      "buffer": 0,
      "byteLength": 8696,
      "byteOffset": 15572,
      "target": 34962
    },
    {
      "buffer": 0,
      "byteLength": 13044,
      "byteOffset": 24268,
      "target": 34962
    },
    {
      "buffer": 0,
      "byteLength": 11904,
      "byteOffset": 37312,
      "target": 34963
    },
    {
      "buffer": 0,
      "byteLength": 4,
      "byteOffset": 49216
    },
    {
      "buffer": 0,
      "byteLength": 16,
      "byteOffset": 49220
    },
    {
      "buffer": 0,
      "byteLength": 120,
      "byteOffset": 49236
    },
    {
      "buffer": 0,
      "byteLength": 480,
      "byteOffset": 49356
    }
  ],
  "samplers": [
    {
      "magFilter": 9729,
      "minFilter": 9987
    }
  ],
  "buffers": [
    {
      "uri": "uploads_files_5973654_globe_data.bin",
      "byteLength": 49836
    }
  ]
}